<svg display="none" xmlns="http://www.w3.org/2000/svg" xmlns:xlink="http://www.w3.org/1999/xlink">
    <symbol id="icon-github" viewBox="0 0 26 22">
        <g>
	        <path  d="M25.047,17.422C22.984,21.594,17.313,22,13.25,22c-4.125,0-10.141-0.359-12.281-4.578
		        C0.172,15.844,0,13.984,0,12.25c0-2.281,0.625-4.438,2.125-6.188C1.844,5.203,1.703,4.297,1.703,3.406
		        C1.703,2.234,1.969,1.063,2.5,0c2.469,0,4.047,1.078,5.922,2.547C10,2.172,11.625,2,13.25,2c1.469,0,2.953,0.156,4.375,0.5
		        C19.484,1.047,21.063,0,23.5,0c0.531,1.063,0.797,2.234,0.797,3.406c0,0.891-0.141,1.781-0.422,2.625
		        C25.375,7.797,26,9.969,26,12.25C26,13.984,25.828,15.828,25.047,17.422z M18.5,10.5c-1.031,0-2.016,0.188-3.047,0.328
		        C14.641,10.953,13.828,11,13,11s-1.641-0.047-2.453-0.172C9.531,10.688,8.531,10.5,7.5,10.5c-2.547,0-4,2.109-4,4.5
		        c0,4.781,4.375,5.516,8.188,5.516h2.625c3.813,0,8.188-0.734,8.188-5.516C22.5,12.609,21.047,10.5,18.5,10.5z M8,18
		        c-1.406,0-2-1.859-2-3s0.594-3,2-3s2,1.859,2,3S9.406,18,8,18z M18,18c-1.406,0-2-1.859-2-3s0.594-3,2-3s2,1.859,2,3
		        S19.406,18,18,18z"/>
        </g>
    </symbol>
	<symbol id="icon-vk" viewBox="0 0 30.011 17.123">
		<g>
			<path  d="M27.625,5.832c-3.031,4.031-3.359,3.656-0.859,5.984c2.406,2.234,2.906,3.313,2.984,3.453
		c0,0,1,1.75-1.109,1.766l-4,0.063c-0.859,0.172-2-0.609-2-0.609c-1.5-1.031-2.906-3.703-4-3.359c0,0-1.125,0.359-1.094,2.766
		c0.016,0.516-0.234,0.797-0.234,0.797s-0.281,0.297-0.828,0.344h-1.797c-3.953,0.25-7.438-3.391-7.438-3.391
		S3.437,9.707,0.093,1.848c-0.219-0.516,0.016-0.766,0.016-0.766S0.343,0.785,1,0.785l4.281-0.031
		c0.406,0.063,0.688,0.281,0.688,0.281s0.25,0.172,0.375,0.5c0.703,1.75,1.609,3.344,1.609,3.344
		c1.563,3.219,2.625,3.766,3.234,3.438c0,0,0.797-0.484,0.625-4.375c-0.063-1.406-0.453-2.047-0.453-2.047
		C11,1.41,10.328,1.27,10.031,1.223c-0.234-0.031,0.156-0.594,0.672-0.844c0.766-0.375,2.125-0.391,3.734-0.375
		c1.266,0.016,1.625,0.094,2.109,0.203c1.484,0.359,0.984,1.734,0.984,5.047c0,1.063-0.203,2.547,0.563,3.031
		c0.328,0.219,1.141,0.031,3.141-3.375c0,0,0.938-1.625,1.672-3.516c0.125-0.344,0.391-0.484,0.391-0.484s0.25-0.141,0.594-0.094
		l4.5-0.031c1.359-0.172,1.578,0.453,1.578,0.453C30.203,1.879,29.468,3.379,27.625,5.832z"/>
		</g>
	</symbol>
	<symbol id="icon-in" viewBox="0 0 24 22.938">
		<g>
			<path  d="M2.875,5.344H2.844C1.109,5.344,0,4.156,0,2.672C0,1.156,1.156,0,2.906,0c1.766,0,2.859,1.156,2.875,2.672
		C5.797,4.156,4.672,5.344,2.875,5.344z M5.453,22.938H0.297V7.453h5.156V22.938z M24,22.938h-5.141v-8.281
		c0-2.078-0.75-3.5-2.609-3.5c-1.422,0-2.266,0.953-2.641,1.875c-0.125,0.344-0.172,0.797-0.172,1.266v8.641H8.297
		c0.063-14.031,0-15.484,0-15.484h5.141v2.25h-0.031c0.672-1.063,1.891-2.609,4.672-2.609c3.391,0,5.922,2.219,5.922,6.969V22.938z"
		/>
		</g>
	</symbol>
	<symbol id="icon-login"  viewBox="0 0 14.137 15.422">
		<g>
			<path  d="M11.456,15.422H2.681C1.084,15.422,0,14.448,0,12.821c0-2.269,0.532-5.753,3.474-5.753
				c0.312,0,1.627,1.396,3.595,1.396s3.283-1.396,3.595-1.396c2.941,0,3.474,3.484,3.474,5.753
				C14.137,14.448,13.053,15.422,11.456,15.422z M7.068,7.711c-2.129,0-3.855-1.727-3.855-3.855S4.939,0,7.068,0
				s3.855,1.727,3.855,3.855S9.197,7.711,7.068,7.711z"/>
		</g>
	</symbol>
	<symbol id="icon-password"  viewBox="0 0 16.897 15.984">
		<g>
			<path  d="M15.743,12.078c-0.261,0-1.074-0.943-1.285-1.154l-0.964,0.964l2.209,2.209
				0.181,0.181,0.281,0.432,0.281,0.683c0,0.563-0.643,1.205-1.205,1.205c-0.251,0-0.502-0.101-0.683-0.281L7.359,8.966
				c-1.054,0.783-2.339,1.315-3.664,1.315C1.506,10.281,0,8.765,0,6.586C0,3.293,3.293,0,6.586,0c2.18,0,3.695,1.506,3.695,3.695
				c0,1.325-0.532,2.61-1.315,3.665l3.564,3.564l0.964-0.964c-0.211-0.211-1.154-1.024-1.154-1.285c0-0.231,0.924-1.155,1.154-1.155
				c0.08,0,0.171,0.041,0.23,0.101c0.372,0.372,3.173,3.012,3.173,3.303C16.897,11.154,15.974,12.078,15.743,12.078z M6.426,1.928
				c-1.064,0-1.928,0.863-1.928,1.928c0,0.291,0.07,0.572,0.19,0.833C4.428,4.568,4.146,4.498,3.855,4.498
				c-1.064,0-1.928,0.863-1.928,1.928s0.863,1.928,1.928,1.928S5.783,7.49,5.783,6.426c0-0.291-0.07-0.572-0.19-0.833
				c0.261,0.121,0.542,0.191,0.833,0.191c1.064,0,1.928-0.863,1.928-1.928S7.49,1.928,6.426,1.928z"/>
		</g>
	</symbol>
	<symbol id="icon-arrow-down" viewBox="0 0 25.18 16.164">
        <g>
	        <path fill="#FFFFFF" d="M13.293,15.871c-0.391,0.391-1.016,0.391-1.406,0L0.293,4.293c-0.391-0.391-0.391-1.031,0-1.422
		        l2.594-2.578c0.391-0.391,1.016-0.391,1.406,0L12.59,8.59l8.297-8.297c0.391-0.391,1.016-0.391,1.406,0l2.594,2.578
		        c0.391,0.391,0.391,1.031,0,1.422L13.293,15.871z"/>
        </g>
	</symbol>
</svg>