<svg display="none" xmlns="http://www.w3.org/2000/svg" xmlns:xlink="http://www.w3.org/1999/xlink">
    <symbol id="icon-github" viewBox="0 0 26 22">
        <g>
	        <path  d="M25.047,17.422C22.984,21.594,17.313,22,13.25,22c-4.125,0-10.141-0.359-12.281-4.578
		        C0.172,15.844,0,13.984,0,12.25c0-2.281,0.625-4.438,2.125-6.188C1.844,5.203,1.703,4.297,1.703,3.406
		        C1.703,2.234,1.969,1.063,2.5,0c2.469,0,4.047,1.078,5.922,2.547C10,2.172,11.625,2,13.25,2c1.469,0,2.953,0.156,4.375,0.5
		        C19.484,1.047,21.063,0,23.5,0c0.531,1.063,0.797,2.234,0.797,3.406c0,0.891-0.141,1.781-0.422,2.625
		        C25.375,7.797,26,9.969,26,12.25C26,13.984,25.828,15.828,25.047,17.422z M18.5,10.5c-1.031,0-2.016,0.188-3.047,0.328
		        C14.641,10.953,13.828,11,13,11s-1.641-0.047-2.453-0.172C9.531,10.688,8.531,10.5,7.5,10.5c-2.547,0-4,2.109-4,4.5
		        c0,4.781,4.375,5.516,8.188,5.516h2.625c3.813,0,8.188-0.734,8.188-5.516C22.5,12.609,21.047,10.5,18.5,10.5z M8,18
		        c-1.406,0-2-1.859-2-3s0.594-3,2-3s2,1.859,2,3S9.406,18,8,18z M18,18c-1.406,0-2-1.859-2-3s0.594-3,2-3s2,1.859,2,3
		        S19.406,18,18,18z"/>
        </g>
    </symbol>
	<symbol id="icon-vk" viewBox="0 0 30.011 17.123">
		<g>
			<path  d="M27.625,5.832c-3.031,4.031-3.359,3.656-0.859,5.984c2.406,2.234,2.906,3.313,2.984,3.453
		c0,0,1,1.75-1.109,1.766l-4,0.063c-0.859,0.172-2-0.609-2-0.609c-1.5-1.031-2.906-3.703-4-3.359c0,0-1.125,0.359-1.094,2.766
		c0.016,0.516-0.234,0.797-0.234,0.797s-0.281,0.297-0.828,0.344h-1.797c-3.953,0.25-7.438-3.391-7.438-3.391
		S3.437,9.707,0.093,1.848c-0.219-0.516,0.016-0.766,0.016-0.766S0.343,0.785,1,0.785l4.281-0.031
		c0.406,0.063,0.688,0.281,0.688,0.281s0.25,0.172,0.375,0.5c0.703,1.75,1.609,3.344,1.609,3.344
		c1.563,3.219,2.625,3.766,3.234,3.438c0,0,0.797-0.484,0.625-4.375c-0.063-1.406-0.453-2.047-0.453-2.047
		C11,1.41,10.328,1.27,10.031,1.223c-0.234-0.031,0.156-0.594,0.672-0.844c0.766-0.375,2.125-0.391,3.734-0.375
		c1.266,0.016,1.625,0.094,2.109,0.203c1.484,0.359,0.984,1.734,0.984,5.047c0,1.063-0.203,2.547,0.563,3.031
		c0.328,0.219,1.141,0.031,3.141-3.375c0,0,0.938-1.625,1.672-3.516c0.125-0.344,0.391-0.484,0.391-0.484s0.25-0.141,0.594-0.094
		l4.5-0.031c1.359-0.172,1.578,0.453,1.578,0.453C30.203,1.879,29.468,3.379,27.625,5.832z"/>
		</g>
	</symbol>
	<symbol id="icon-in" viewBox="0 0 24 22.938">
		<g>
			<path  d="M2.875,5.344H2.844C1.109,5.344,0,4.156,0,2.672C0,1.156,1.156,0,2.906,0c1.766,0,2.859,1.156,2.875,2.672
		C5.797,4.156,4.672,5.344,2.875,5.344z M5.453,22.938H0.297V7.453h5.156V22.938z M24,22.938h-5.141v-8.281
		c0-2.078-0.75-3.5-2.609-3.5c-1.422,0-2.266,0.953-2.641,1.875c-0.125,0.344-0.172,0.797-0.172,1.266v8.641H8.297
		c0.063-14.031,0-15.484,0-15.484h5.141v2.25h-0.031c0.672-1.063,1.891-2.609,4.672-2.609c3.391,0,5.922,2.219,5.922,6.969V22.938z"
		/>
		</g>
	</symbol>
	<symbol id="icon-login"  viewBox="0 0 14.137 15.422">
		<g>
			<path  d="M11.456,15.422H2.681C1.084,15.422,0,14.448,0,12.821c0-2.269,0.532-5.753,3.474-5.753
				c0.312,0,1.627,1.396,3.595,1.396s3.283-1.396,3.595-1.396c2.941,0,3.474,3.484,3.474,5.753
				C14.137,14.448,13.053,15.422,11.456,15.422z M7.068,7.711c-2.129,0-3.855-1.727-3.855-3.855S4.939,0,7.068,0
				s3.855,1.727,3.855,3.855S9.197,7.711,7.068,7.711z"/>
		</g>
	</symbol>
	<symbol id="icon-password"  viewBox="0 0 16.897 15.984">
		<g>
			<path  d="M15.743,12.078c-0.261,0-1.074-0.943-1.285-1.154l-0.964,0.964l2.209,2.209
				0.181,0.181,0.281,0.432,0.281,0.683c0,0.563-0.643,1.205-1.205,1.205c-0.251,0-0.502-0.101-0.683-0.281L7.359,8.966
				c-1.054,0.783-2.339,1.315-3.664,1.315C1.506,10.281,0,8.765,0,6.586C0,3.293,3.293,0,6.586,0c2.18,0,3.695,1.506,3.695,3.695
				c0,1.325-0.532,2.61-1.315,3.665l3.564,3.564l0.964-0.964c-0.211-0.211-1.154-1.024-1.154-1.285c0-0.231,0.924-1.155,1.154-1.155
				c0.08,0,0.171,0.041,0.23,0.101c0.372,0.372,3.173,3.012,3.173,3.303C16.897,11.154,15.974,12.078,15.743,12.078z M6.426,1.928
				c-1.064,0-1.928,0.863-1.928,1.928c0,0.291,0.07,0.572,0.19,0.833C4.428,4.568,4.146,4.498,3.855,4.498
				c-1.064,0-1.928,0.863-1.928,1.928s0.863,1.928,1.928,1.928S5.783,7.49,5.783,6.426c0-0.291-0.07-0.572-0.19-0.833
				c0.261,0.121,0.542,0.191,0.833,0.191c1.064,0,1.928-0.863,1.928-1.928S7.49,1.928,6.426,1.928z"/>
		</g>
	</symbol>
	<symbol id="icon-arrow-down" viewBox="0 0 25.18 16.164">
        <g>
	        <path  d="M13.293,15.871c-0.391,0.391-1.016,0.391-1.406,0L0.293,4.293c-0.391-0.391-0.391-1.031,0-1.422
		        l2.594-2.578c0.391-0.391,1.016-0.391,1.406,0L12.59,8.59l8.297-8.297c0.391-0.391,1.016-0.391,1.406,0l2.594,2.578
		        c0.391,0.391,0.391,1.031,0,1.422L13.293,15.871z"/>
        </g>
	</symbol>
	<symbol id="icon-arrow-up" viewBox="0 0 42.736 27.435">
        <g>
	        <path d="M42.239,20.149c0.663,0.662,0.663,1.75,0,2.413l-4.401,4.376c-0.663,0.662-1.725,0.662-2.388,0
		L21.369,12.856L7.287,26.938c-0.663,0.662-1.724,0.662-2.387,0l-4.402-4.376c-0.663-0.663-0.663-1.751,0-2.413L20.175,0.498
		c0.663-0.663,1.724-0.663,2.387,0L42.239,20.149z"/>
        </g>
	</symbol>
	<symbol id="icon-telegram" viewBox="0 0 26.649 26.649">
        <g>
	        <path d="M26.157,1.238c-0.434-0.567-1.107-0.892-1.847-0.892c-0.478,0-0.973,0.133-1.472,0.395L1.593,11.88
		        c-1.51,0.793-1.615,1.987-1.59,2.463c0.024,0.479,0.255,1.654,1.839,2.283L4.557,17.7c0.515,0.204,1.091,0.309,1.711,0.309
		        c0.098,0,0.192-0.013,0.289-0.018c-0.037,0.048-0.082,0.085-0.116,0.135c-0.506,0.757-0.531,1.783-0.073,2.888
				c0.007,0.019,0.014,0.035,0.021,0.051c0.803,1.779,1.696,3.787,1.804,4.066c0.266,0.694,0.944,1.172,1.688,1.172
				c1.146,0,1.486-0.552,3.361-3.604c0.146-0.224,0.471-0.744,0.526-1.406c0.219,0.089,0.425,0.171,0.601,0.242l3.008,1.226
				c0.603,0.246,1.131,0.463,1.409,0.578c0.086,0.053,0.177,0.098,0.272,0.137c0.212,0.084,0.438,0.127,0.665,0.127
				c1.368,0,1.696-1.185,1.872-1.82c0.087-0.314,0.207-0.749,0.336-1.229l4.588-16.858C26.865,2.423,26.44,1.61,26.157,1.238z
				M11.727,21.739c0,0-1.702,2.771-1.847,2.771c-0.004,0-0.006-0.002-0.008-0.006c-0.167-0.449-1.849-4.176-1.849-4.176
				c-0.31-0.747-0.254-1.387,0.279-1.387c0.117,0,0.257,0.031,0.421,0.099l1.306,0.679c0.218,0.149,0.456,0.278,0.718,0.381
				l0.066,0.025l0.123,0.062C11.945,20.721,12.266,20.914,11.727,21.739z M24.789,3.224l-4.586,16.858
				c-0.259,0.95-0.475,1.727-0.479,1.727c-0.004-0.002-0.009-0.02-0.009-0.023c0-0.006-0.748-0.312-1.662-0.686l-3.01-1.226
				c-0.914-0.37-2.413-0.969-3.332-1.323l-0.152-0.061l-0.562-0.292c-0.557-0.427-0.606-1.131-0.046-1.728l9.312-9.971
				c0.374-0.399,0.515-0.605,0.434-0.605c-0.064,0-0.271,0.133-0.617,0.404L8.298,15.592c-0.514,0.401-1.295,0.625-2.029,0.625
				c-0.376,0-0.741-0.06-1.052-0.183l-2.713-1.073c-0.917-0.363-0.952-1.033-0.079-1.493L23.672,2.327
				c0.245-0.128,0.46-0.188,0.638-0.188C24.767,2.139,24.975,2.539,24.789,3.224z"/>
        </g>
	</symbol>
	<symbol id="icon-link" viewBox="0 0 19.125 19.125">
        <g>
	       <path d="M18.129,16.441l-1.723,1.711c-0.633,0.633-1.488,0.973-2.379,0.973c-0.902,0-1.758-0.352-2.391-0.996
				l-2.414-2.426C8.59,15.07,8.25,14.215,8.25,13.324c0-0.926,0.375-1.805,1.031-2.449L8.25,9.844
				c-0.645,0.656-1.512,1.031-2.438,1.031c-0.891,0-1.758-0.352-2.391-0.984L0.984,7.453C0.34,6.809,0,5.965,0,5.063
				c0-0.891,0.363-1.758,0.996-2.379l1.723-1.711C3.352,0.34,4.207,0,5.098,0C6,0,6.855,0.352,7.488,0.996l2.414,2.426
				c0.633,0.633,0.973,1.488,0.973,2.379c0,0.926-0.375,1.805-1.031,2.449l1.031,1.031c0.645-0.656,1.512-1.031,2.438-1.031
				c0.891,0,1.758,0.352,2.391,0.984l2.438,2.438c0.645,0.645,0.984,1.488,0.984,2.391C19.125,14.953,18.762,15.82,18.129,16.441z
				M8.309,5.004L5.895,2.578C5.684,2.367,5.391,2.25,5.098,2.25S4.512,2.367,4.301,2.566L2.578,4.277
				C2.367,4.488,2.25,4.77,2.25,5.063c0,0.305,0.117,0.586,0.328,0.797l2.438,2.438C5.227,8.508,5.52,8.613,5.813,8.613
				c0.34,0,0.609-0.117,0.844-0.363C6.27,7.863,5.813,7.535,5.813,6.938c0-0.621,0.504-1.125,1.125-1.125
				c0.598,0,0.926,0.457,1.313,0.844c0.246-0.234,0.387-0.504,0.387-0.855C8.637,5.508,8.52,5.215,8.309,5.004z M16.547,13.266
				l-2.438-2.438c-0.211-0.211-0.504-0.328-0.797-0.328c-0.34,0-0.609,0.129-0.844,0.375c0.387,0.387,0.844,0.715,0.844,1.313
				c0,0.621-0.504,1.125-1.125,1.125c-0.598,0-0.926-0.457-1.313-0.844c-0.246,0.234-0.387,0.504-0.387,0.855
				c0,0.293,0.117,0.586,0.328,0.797l2.414,2.426c0.211,0.211,0.504,0.316,0.797,0.316s0.586-0.105,0.797-0.305l1.723-1.711
				c0.211-0.211,0.328-0.492,0.328-0.785C16.875,13.758,16.758,13.477,16.547,13.266z"/>
        </g>
	</symbol>
	<symbol id="icon-mail" viewBox="0 0 22.012 17.295">
        <g>
			<path d="M19.911,5.331c-1.916,1.327-3.845,2.653-5.748,3.992c-0.799,0.553-2.15,1.683-3.145,1.683h-0.013h-0.012
				c-0.995,0-2.346-1.13-3.145-1.683C5.945,7.984,4.017,6.658,2.113,5.331C1.241,4.741,0,3.354,0,2.235C0,1.032,0.651,0,1.965,0
				h18.082c1.068,0,1.965,0.884,1.965,1.965C22.012,3.341,20.992,4.582,19.911,5.331z M22.012,15.33c0,1.08-0.885,1.965-1.965,1.965
				H1.965C0.884,17.295,0,16.41,0,15.33V5.577c0.369,0.405,0.786,0.762,1.241,1.069c2.039,1.388,4.103,2.776,6.104,4.237
				c1.032,0.762,2.31,1.695,3.648,1.695h0.012h0.013c1.339,0,2.616-0.934,3.647-1.695c2.003-1.449,4.066-2.85,6.117-4.237
				c0.442-0.307,0.86-0.664,1.229-1.069V15.33z"/>
		</g>
	</symbol>
	<symbol id="icon-skype" viewBox="0 0 24 24">
       <g>
			<path d="M18,24c-1.375,0-2.641-0.469-3.656-1.25C13.594,22.906,12.797,23,12,23C5.922,23,1,18.078,1,12
				c0-0.797,0.094-1.594,0.25-2.344C0.469,8.641,0,7.375,0,6c0-3.313,2.688-6,6-6c1.375,0,2.641,0.469,3.656,1.25
				C10.406,1.094,11.203,1,12,1c6.078,0,11,4.922,11,11c0,0.797-0.094,1.594-0.25,2.344C23.531,15.359,24,16.625,24,18
				C24,21.313,21.313,24,18,24z M13.469,10.453l-1.625-0.375c-1.188-0.281-2.078-0.484-2.078-1.391c0-0.828,0.875-1.203,2.25-1.203
				c2.453,0,2.5,1.797,4.016,1.797c1.016,0,1.625-0.797,1.625-1.703c0-1.797-2.984-2.969-5.938-2.969
				c-2.703,0-5.844,1.172-5.844,4.344c0,2.625,1.75,3.563,4.031,4.109l2.281,0.563c1.391,0.344,2.25,0.5,2.25,1.5
				c0,0.797-0.891,1.406-2.266,1.406c-2.891,0-3.047-2.406-4.719-2.406c-1.094,0-1.578,0.781-1.578,1.641
				c0,1.922,2.938,3.484,6.453,3.484c2.938,0,6-1.469,6-4.641C18.328,11.891,15.688,10.953,13.469,10.453z"/>
		</g>
	</symbol>
	<symbol id="icon-phone" viewBox="0 0 18.864 18.863">
       <g>
			<path d="M18.448,16.76c-0.281,0.656-1.031,1.086-1.634,1.42c-0.791,0.43-1.595,0.684-2.492,0.684
				c-1.246,0-2.371-0.51-3.51-0.924c-0.817-0.295-1.608-0.657-2.345-1.112c-2.278-1.407-5.024-4.153-6.431-6.431
				C1.581,9.659,1.219,8.869,0.924,8.052C0.509,6.913,0,5.788,0,4.542C0,3.644,0.254,2.84,0.683,2.05
				c0.335-0.603,0.764-1.353,1.42-1.634C2.545,0.214,3.483,0,3.965,0C4.06,0,4.153,0,4.247,0.04c0.281,0.094,0.576,0.75,0.71,1.019
				c0.429,0.764,0.844,1.541,1.286,2.291c0.214,0.349,0.616,0.777,0.616,1.192c0,0.817-2.425,2.01-2.425,2.733
				c0,0.361,0.335,0.831,0.522,1.152c1.353,2.438,3.041,4.126,5.479,5.479c0.322,0.188,0.791,0.522,1.152,0.522
				c0.724,0,1.916-2.425,2.733-2.425c0.415,0,0.844,0.402,1.192,0.616c0.75,0.442,1.527,0.857,2.291,1.286
				c0.268,0.134,0.924,0.429,1.018,0.71c0.041,0.094,0.041,0.188,0.041,0.281C18.864,15.38,18.649,16.318,18.448,16.76z"/>
		</g>
	</symbol>
	<symbol id="icon-marker" viewBox="0 0 15.151 21.654">
       <g>
			<path d="M11.004,7.835c0-1.883-1.538-3.414-3.43-3.414c-1.889,0-3.431,1.531-3.431,3.414
				c0,1.884,1.542,3.419,3.431,3.419C9.466,11.254,11.004,9.719,11.004,7.835z"/>
			<path d="M7.574,21.654l1.388-1.817c1.455-1.925,6.189-8.469,6.189-12.049C15.151,3.132,12.106,0,7.574,0
				C3.045,0,0,3.132,0,7.788c0,3.854,5.56,11.223,6.192,12.049L7.574,21.654z M2.792,7.835c0-2.628,2.146-4.77,4.782-4.77
				c2.64,0,4.785,2.142,4.785,4.77c0,2.63-2.146,4.771-4.785,4.771C4.938,12.605,2.792,10.465,2.792,7.835z"/>
		</g>
	</symbol>
</svg>